<?xml version="1.0" encoding="UTF-8"?>
<svg xmlns="http://www.w3.org/2000/svg" xmlns:xlink="http://www.w3.org/1999/xlink" width="50pt" height="50pt" viewBox="0 0 50 50" version="1.1">
<g id="surface1">
<rect x="0" y="0" width="50" height="50" style="fill:rgb(87.843137%,56.862745%,18.431373%);fill-opacity:1;stroke:none;"/>
<path style=" stroke:none;fill-rule:evenodd;fill:rgb(100%,100%,100%);fill-opacity:1;" d="M 16.75 9.632812 L 26.945312 21.929688 C 28.230469 23.523438 28.984375 25.546875 28.984375 27.753906 C 28.984375 32.855469 24.890625 36.980469 19.839844 36.980469 C 16.582031 36.980469 13.816406 35.15625 12.101562 32.667969 L 6.664062 26.054688 L 6.664062 23.230469 L 13.460938 31.695312 L 13.507812 31.789062 C 15.082031 33.609375 17.183594 35.324219 19.839844 35.324219 C 23.964844 35.324219 27.332031 31.941406 27.332031 27.753906 C 27.332031 25.949219 26.714844 24.292969 25.664062 22.996094 L 16.75 12.476562 Z M 16.75 9.632812 "/>
<path style=" stroke:none;fill-rule:evenodd;fill:rgb(100%,100%,100%);fill-opacity:1;" d="M 24.953125 24.636719 C 25.480469 25.546875 25.742188 26.628906 25.742188 27.769531 C 25.742188 31.125 23.128906 33.84375 19.886719 33.84375 C 17.863281 33.84375 16.085938 32.792969 15.019531 31.167969 L 6.660156 20.957031 L 6.660156 18.117188 L 16.625 30.320312 C 17.523438 31.570312 18.25 31.789062 19.808594 32.003906 C 22.082031 32.328125 23.964844 30.074219 23.964844 27.679688 C 23.964844 26.90625 23.902344 26.226562 23.5625 25.609375 L 16.75 17.480469 L 16.75 14.640625 Z M 24.953125 24.636719 "/>
<path style=" stroke:none;fill-rule:evenodd;fill:rgb(100%,100%,100%);fill-opacity:1;" d="M 22.125 25.980469 L 22.265625 27.042969 L 21.972656 28.621094 C 21.972656 28.621094 21.632812 30.210938 21.476562 30.304688 C 19.375 31.464844 17.894531 29.777344 17.894531 29.777344 C 18.21875 30.011719 18.605469 30.148438 19.019531 30.148438 C 20.117188 30.148438 21.015625 29.238281 21.015625 28.109375 C 21.015625 27.585938 20.8125 27.105469 20.488281 26.734375 L 16.75 22.300781 L 16.75 19.460938 Z M 10.800781 36.097656 L 6.660156 31.078125 L 6.660156 28.234375 L 11.375 34.121094 C 11.375 34.121094 16.535156 41.722656 25.570312 36.746094 C 24.148438 38.230469 21.476562 39.417969 18.511719 39.417969 C 15.003906 39.417969 12.132812 37.765625 10.800781 36.097656 Z M 10.800781 36.097656 "/>
<path style=" stroke:none;fill-rule:evenodd;fill:rgb(100%,100%,100%);fill-opacity:1;" d="M 33.265625 9.632812 L 23.054688 21.929688 C 21.785156 23.523438 21.015625 25.546875 21.015625 27.753906 C 21.015625 32.855469 25.109375 36.980469 30.160156 36.980469 C 33.417969 36.980469 36.183594 35.15625 37.898438 32.667969 L 43.335938 26.054688 L 43.335938 23.230469 L 36.554688 31.695312 L 36.492188 31.789062 C 34.917969 33.609375 32.816406 35.324219 30.160156 35.324219 C 26.035156 35.324219 22.683594 31.941406 22.683594 27.753906 C 22.683594 25.949219 23.300781 24.292969 24.335938 22.996094 L 33.265625 12.476562 Z M 33.265625 9.632812 "/>
<path style=" stroke:none;fill-rule:evenodd;fill:rgb(100%,100%,100%);fill-opacity:1;" d="M 25.0625 24.636719 C 24.535156 25.546875 24.257812 26.628906 24.257812 27.769531 C 24.257812 31.125 26.886719 33.84375 30.113281 33.84375 C 32.136719 33.84375 33.929688 32.792969 34.980469 31.167969 L 43.339844 20.957031 L 43.339844 18.117188 L 33.375 30.320312 C 32.476562 31.570312 31.75 31.789062 30.191406 32.003906 C 27.921875 32.328125 26.035156 30.074219 26.035156 27.679688 C 26.035156 26.90625 26.097656 26.226562 26.453125 25.609375 L 33.265625 17.480469 L 33.265625 14.640625 Z M 25.0625 24.636719 "/>
<path style=" stroke:none;fill-rule:evenodd;fill:rgb(100%,100%,100%);fill-opacity:1;" d="M 27.890625 25.980469 L 27.734375 27.042969 L 28.042969 28.621094 C 28.042969 28.621094 28.367188 30.210938 28.523438 30.304688 C 30.625 31.464844 32.105469 29.777344 32.105469 29.777344 C 31.78125 30.011719 31.394531 30.148438 30.980469 30.148438 C 29.882812 30.148438 29 29.238281 29 28.109375 C 29 27.585938 29.1875 27.105469 29.511719 26.734375 L 33.265625 22.300781 L 33.265625 19.460938 Z M 39.199219 36.097656 L 43.335938 31.078125 L 43.335938 28.234375 L 38.625 34.121094 C 38.625 34.121094 33.480469 41.722656 24.445312 36.746094 C 25.863281 38.230469 28.523438 39.417969 31.503906 39.417969 C 35.011719 39.417969 37.867188 37.765625 39.199219 36.097656 Z M 39.199219 36.097656 "/>
</g>
</svg>
