<?xml version="1.0" encoding="UTF-8"?>
<svg xmlns="http://www.w3.org/2000/svg" xmlns:xlink="http://www.w3.org/1999/xlink" width="50pt" height="50pt" viewBox="0 0 50 50" version="1.1">
<g id="surface1">
<rect x="0" y="0" width="50" height="50" style="fill:rgb(100%,100%,100%);fill-opacity:1;stroke:none;"/>
<path style=" stroke:none;fill-rule:evenodd;fill:rgb(46.27451%,46.666667%,47.843137%);fill-opacity:1;" d="M 12.132812 43.714844 L 11.730469 43.714844 L 11.730469 44.964844 C 11.542969 44.667969 11.203125 44.585938 10.949219 44.585938 C 10.207031 44.585938 9.847656 45.15625 9.847656 45.832031 C 9.847656 46.511719 10.207031 47.101562 10.949219 47.101562 C 11.289062 47.101562 11.605469 46.996094 11.730469 46.722656 L 11.730469 47.058594 L 12.132812 47.058594 Z M 10.273438 45.855469 C 10.273438 45.386719 10.441406 44.921875 10.992188 44.921875 C 11.542969 44.921875 11.753906 45.367188 11.753906 45.855469 C 11.753906 46.296875 11.542969 46.765625 11.011719 46.765625 C 10.503906 46.765625 10.273438 46.320312 10.273438 45.855469 Z M 14.503906 46.277344 C 14.441406 46.59375 14.207031 46.765625 13.890625 46.765625 C 13.363281 46.765625 13.109375 46.382812 13.128906 45.960938 L 14.949219 45.960938 C 14.96875 45.386719 14.695312 44.585938 13.847656 44.585938 C 13.191406 44.585938 12.707031 45.113281 12.707031 45.832031 C 12.726562 46.574219 13.109375 47.101562 13.871094 47.101562 C 14.417969 47.101562 14.800781 46.828125 14.90625 46.277344 Z M 13.128906 45.621094 C 13.148438 45.242188 13.402344 44.921875 13.828125 44.921875 C 14.207031 44.921875 14.503906 45.242188 14.523438 45.621094 Z M 19.6875 44.710938 C 19.582031 44.011719 19.011719 43.632812 18.3125 43.632812 C 17.296875 43.632812 16.746094 44.414062 16.746094 45.386719 C 16.746094 46.363281 17.253906 47.125 18.292969 47.125 C 19.117188 47.125 19.644531 46.617188 19.730469 45.789062 L 19.285156 45.789062 C 19.246094 46.339844 18.90625 46.765625 18.3125 46.765625 C 17.53125 46.765625 17.191406 46.128906 17.191406 45.367188 C 17.191406 44.667969 17.53125 44.011719 18.3125 44.011719 C 18.777344 44.011719 19.160156 44.246094 19.246094 44.710938 Z M 20.980469 44.308594 L 21.277344 44.308594 L 21.890625 43.632812 L 21.382812 43.632812 Z M 21.804688 46.214844 C 21.804688 46.425781 21.59375 46.765625 21.0625 46.765625 C 20.808594 46.765625 20.597656 46.660156 20.597656 46.402344 C 20.597656 46.109375 20.808594 46.023438 21.085938 45.960938 C 21.339844 45.917969 21.65625 45.917969 21.804688 45.8125 Z M 22.441406 46.742188 C 22.398438 46.742188 22.355469 46.765625 22.332031 46.765625 C 22.207031 46.765625 22.207031 46.679688 22.207031 46.488281 L 22.207031 45.242188 C 22.207031 44.667969 21.71875 44.585938 21.296875 44.585938 C 20.746094 44.585938 20.300781 44.796875 20.261719 45.390625 L 20.660156 45.390625 C 20.683594 45.027344 20.9375 44.921875 21.277344 44.921875 C 21.53125 44.921875 21.804688 44.988281 21.804688 45.324219 C 21.804688 45.621094 21.421875 45.601562 21 45.683594 C 20.578125 45.769531 20.175781 45.875 20.175781 46.425781 C 20.175781 46.914062 20.535156 47.101562 20.980469 47.101562 C 21.316406 47.101562 21.613281 46.996094 21.824219 46.742188 C 21.824219 46.996094 21.953125 47.101562 22.164062 47.101562 C 22.292969 47.101562 22.375 47.082031 22.441406 47.039062 Z M 25.0625 43.714844 L 24.660156 43.714844 L 24.660156 44.964844 C 24.492188 44.667969 24.132812 44.585938 23.878906 44.585938 C 23.136719 44.585938 22.777344 45.15625 22.777344 45.832031 C 22.777344 46.511719 23.136719 47.101562 23.898438 47.101562 C 24.21875 47.101562 24.535156 46.996094 24.660156 46.722656 L 24.660156 47.058594 L 25.0625 47.058594 Z M 23.203125 45.855469 C 23.203125 45.386719 23.390625 44.921875 23.921875 44.921875 C 24.472656 44.921875 24.683594 45.367188 24.683594 45.855469 C 24.683594 46.296875 24.472656 46.765625 23.941406 46.765625 C 23.433594 46.765625 23.203125 46.320312 23.203125 45.855469 Z M 25.804688 47.058594 L 26.183594 47.058594 L 26.183594 44.625 L 25.804688 44.625 Z M 25.804688 44.203125 L 26.183594 44.203125 L 26.183594 43.714844 L 25.804688 43.714844 Z M 26.714844 47.058594 L 28.746094 47.058594 L 28.746094 46.699219 L 27.199219 46.699219 L 28.683594 44.902344 L 28.683594 44.625 L 26.796875 44.625 L 26.796875 44.988281 L 28.175781 44.988281 L 26.714844 46.742188 Z M 12.707031 38.703125 L 12.261719 38.703125 L 12.261719 40.816406 C 12.261719 41.410156 11.945312 41.726562 11.394531 41.726562 C 10.800781 41.726562 10.460938 41.410156 10.460938 40.816406 L 10.460938 38.703125 L 10.019531 38.703125 L 10.019531 40.816406 C 10.019531 41.707031 10.527344 42.109375 11.394531 42.109375 C 12.21875 42.109375 12.707031 41.664062 12.707031 40.816406 Z M 13.445312 42.023438 L 13.847656 42.023438 L 13.847656 40.667969 C 13.847656 40.226562 14.082031 39.90625 14.566406 39.90625 C 14.863281 39.90625 15.054688 40.097656 15.054688 40.394531 L 15.054688 42.023438 L 15.457031 42.023438 L 15.457031 40.4375 C 15.457031 39.929688 15.246094 39.570312 14.609375 39.570312 C 14.269531 39.570312 13.996094 39.695312 13.828125 39.992188 L 13.828125 39.609375 L 13.445312 39.609375 Z M 16.15625 42.023438 L 16.558594 42.023438 L 16.558594 39.613281 L 16.15625 39.613281 Z M 16.15625 39.1875 L 16.558594 39.1875 L 16.558594 38.703125 L 16.15625 38.703125 Z M 19.246094 39.613281 L 18.820312 39.613281 L 18.164062 41.621094 L 17.488281 39.613281 L 17.042969 39.613281 L 17.933594 42.023438 L 18.355469 42.023438 Z M 21.359375 41.261719 C 21.296875 41.578125 21.0625 41.726562 20.746094 41.726562 C 20.21875 41.726562 19.984375 41.367188 19.984375 40.945312 L 21.804688 40.945312 C 21.824219 40.351562 21.550781 39.570312 20.703125 39.570312 C 20.046875 39.570312 19.5625 40.097656 19.5625 40.816406 C 19.582031 41.558594 19.964844 42.085938 20.726562 42.085938 C 21.277344 42.085938 21.65625 41.789062 21.761719 41.261719 Z M 19.984375 40.585938 C 20.027344 40.226562 20.261719 39.90625 20.683594 39.90625 C 21.0625 39.90625 21.359375 40.203125 21.382812 40.585938 Z M 22.292969 42.023438 L 22.695312 42.023438 L 22.695312 40.964844 C 22.695312 40.351562 22.925781 39.972656 23.5625 39.972656 L 23.5625 39.570312 C 23.136719 39.546875 22.863281 39.738281 22.671875 40.121094 L 22.671875 39.613281 L 22.292969 39.613281 Z M 23.792969 41.261719 C 23.816406 41.875 24.28125 42.085938 24.832031 42.085938 C 25.316406 42.085938 25.847656 41.898438 25.847656 41.324219 C 25.847656 40.859375 25.464844 40.734375 25.0625 40.648438 C 24.683594 40.542969 24.28125 40.5 24.28125 40.226562 C 24.28125 39.972656 24.554688 39.90625 24.789062 39.90625 C 25.042969 39.90625 25.316406 40.011719 25.339844 40.308594 L 25.742188 40.308594 C 25.71875 39.738281 25.277344 39.570312 24.746094 39.570312 C 24.324219 39.570312 23.859375 39.761719 23.859375 40.246094 C 23.859375 40.710938 24.238281 40.839844 24.640625 40.921875 C 25.042969 41.007812 25.425781 41.070312 25.425781 41.367188 C 25.425781 41.6875 25.085938 41.726562 24.851562 41.726562 C 24.515625 41.726562 24.21875 41.621094 24.195312 41.261719 Z M 26.398438 42.023438 L 26.800781 42.023438 L 26.800781 39.613281 L 26.398438 39.613281 Z M 26.398438 39.1875 L 26.800781 39.1875 L 26.800781 38.703125 L 26.398438 38.703125 Z M 29.675781 38.703125 L 29.273438 38.703125 L 29.273438 39.929688 C 29.085938 39.652344 28.722656 39.570312 28.492188 39.570312 C 27.75 39.570312 27.390625 40.140625 27.390625 40.816406 C 27.390625 41.496094 27.75 42.085938 28.492188 42.085938 C 28.832031 42.085938 29.125 41.980469 29.273438 41.707031 L 29.273438 42.023438 L 29.675781 42.023438 Z M 27.816406 40.839844 C 27.816406 40.375 27.984375 39.90625 28.535156 39.90625 C 29.085938 39.90625 29.296875 40.351562 29.296875 40.816406 C 29.296875 41.285156 29.085938 41.726562 28.554688 41.726562 C 28.046875 41.726562 27.816406 41.304688 27.816406 40.839844 Z M 31.878906 41.199219 C 31.878906 41.410156 31.664062 41.726562 31.136719 41.726562 C 30.90625 41.726562 30.671875 41.644531 30.671875 41.390625 C 30.671875 41.09375 30.902344 40.988281 31.15625 40.945312 C 31.410156 40.902344 31.730469 40.902344 31.878906 40.777344 Z M 32.511719 41.707031 C 32.46875 41.726562 32.425781 41.726562 32.40625 41.726562 C 32.28125 41.726562 32.28125 41.644531 32.28125 41.472656 L 32.28125 40.226562 C 32.28125 39.652344 31.792969 39.570312 31.371094 39.570312 C 30.820312 39.570312 30.375 39.761719 30.332031 40.375 L 30.734375 40.375 C 30.753906 40.015625 31.011719 39.90625 31.347656 39.90625 C 31.601562 39.90625 31.878906 39.972656 31.878906 40.308594 C 31.878906 40.605469 31.496094 40.585938 31.074219 40.671875 C 30.648438 40.753906 30.246094 40.859375 30.246094 41.410156 C 30.246094 41.898438 30.609375 42.085938 31.050781 42.085938 C 31.390625 42.085938 31.6875 41.980469 31.898438 41.707031 C 31.898438 41.980469 32.027344 42.085938 32.238281 42.085938 C 32.363281 42.085938 32.449219 42.066406 32.511719 42.023438 Z M 35.136719 38.703125 L 34.734375 38.703125 L 34.734375 39.929688 C 34.566406 39.652344 34.207031 39.570312 33.949219 39.570312 C 33.210938 39.570312 32.851562 40.140625 32.851562 40.816406 C 32.851562 41.496094 33.210938 42.085938 33.972656 42.085938 C 34.289062 42.085938 34.605469 41.980469 34.734375 41.707031 L 34.734375 42.023438 L 35.136719 42.023438 Z M 33.273438 40.839844 C 33.273438 40.375 33.464844 39.90625 33.992188 39.90625 C 34.542969 39.90625 34.753906 40.351562 34.753906 40.816406 C 34.753906 41.285156 34.542969 41.726562 34.015625 41.726562 C 33.507812 41.726562 33.273438 41.304688 33.273438 40.839844 Z M 33.273438 40.839844 "/>
<path style=" stroke:none;fill-rule:evenodd;fill:rgb(87.843137%,56.862745%,18.431373%);fill-opacity:1;" d="M 9.257812 25.835938 L 10.292969 25.835938 L 10.292969 31.589844 C 10.292969 33.75 11.476562 34.511719 13.65625 34.511719 C 15.160156 34.511719 15.941406 34.195312 16.429688 33.644531 C 16.894531 33.15625 16.957031 32.460938 16.957031 31.78125 L 16.957031 26.324219 C 16.957031 26.046875 17.066406 25.835938 17.359375 25.835938 L 18.164062 25.835938 L 18.164062 25.433594 L 15.351562 25.433594 L 15.351562 25.835938 L 15.941406 25.835938 C 16.34375 25.835938 16.558594 26.046875 16.558594 26.324219 L 16.558594 30.789062 C 16.558594 31.867188 16.558594 32.902344 16.238281 33.222656 C 15.964844 33.601562 15.371094 34.109375 14.335938 34.109375 C 12.832031 34.089844 12.535156 33.476562 12.535156 32.246094 L 12.535156 25.835938 L 13.636719 25.835938 L 13.636719 25.433594 L 9.257812 25.433594 Z M 9.257812 25.835938 "/>
<path style=" stroke:none;fill-rule:evenodd;fill:rgb(0%,40.392157%,54.901961%);fill-opacity:1;" d="M 26.183594 28.226562 C 25.910156 26.34375 24.363281 25.328125 22.523438 25.328125 C 19.773438 25.328125 18.3125 27.445312 18.3125 30.027344 C 18.3125 32.605469 19.644531 34.660156 22.417969 34.660156 C 24.660156 34.660156 26.035156 33.304688 26.269531 31.082031 L 25.085938 31.082031 C 24.957031 32.566406 24.070312 33.664062 22.523438 33.664062 C 20.386719 33.664062 19.496094 31.972656 19.496094 29.941406 C 19.496094 28.078125 20.386719 26.34375 22.503906 26.34375 C 23.730469 26.34375 24.746094 26.976562 25 28.226562 Z M 27.03125 34.449219 L 28.257812 34.449219 L 29.253906 31.761719 L 33.019531 31.761719 L 33.992188 34.449219 L 35.304688 34.449219 L 31.8125 25.539062 L 30.523438 25.539062 Z M 31.136719 26.617188 L 31.15625 26.617188 L 32.640625 30.765625 L 29.632812 30.765625 Z M 31.136719 26.617188 "/>
<path style="fill:none;stroke-width:1.438;stroke-linecap:butt;stroke-linejoin:miter;stroke:rgb(87.843137%,56.862745%,18.431373%);stroke-opacity:1;stroke-miterlimit:2.613;" d="M 167.110417 142.262963 L 38.942736 142.262963 " transform="matrix(0.259395,0,0,0.259395,0,0)"/>
<path style=" stroke:none;fill-rule:evenodd;fill:rgb(46.27451%,46.666667%,47.843137%);fill-opacity:1;" d="M 17.042969 2.875 L 23.964844 11.214844 C 24.832031 12.292969 25.339844 13.667969 25.339844 15.171875 C 25.339844 18.621094 22.566406 21.433594 19.136719 21.433594 C 16.9375 21.433594 15.054688 20.1875 13.890625 18.492188 L 10.207031 14.027344 L 10.207031 12.101562 L 14.800781 17.835938 L 14.84375 17.902344 C 15.902344 19.148438 17.339844 20.3125 19.136719 20.3125 C 21.933594 20.3125 24.21875 18.007812 24.21875 15.171875 C 24.21875 13.945312 23.792969 12.820312 23.09375 11.933594 L 17.042969 4.800781 Z M 17.042969 2.875 "/>
<path style=" stroke:none;fill-rule:evenodd;fill:rgb(46.27451%,46.666667%,47.843137%);fill-opacity:1;" d="M 22.609375 13.054688 C 22.949219 13.667969 23.136719 14.410156 23.136719 15.191406 C 23.136719 17.457031 21.359375 19.296875 19.160156 19.296875 C 17.804688 19.296875 16.597656 18.578125 15.878906 17.5 L 10.207031 10.558594 L 10.207031 8.632812 L 16.957031 16.90625 C 17.574219 17.773438 18.058594 17.902344 19.117188 18.046875 C 20.660156 18.28125 21.929688 16.738281 21.929688 15.128906 C 21.929688 14.597656 21.890625 14.132812 21.65625 13.710938 L 17.042969 8.210938 L 17.042969 6.285156 Z M 22.609375 13.054688 "/>
<path style=" stroke:none;fill-rule:evenodd;fill:rgb(46.27451%,46.666667%,47.843137%);fill-opacity:1;" d="M 20.683594 13.964844 L 20.789062 14.683594 L 20.578125 15.761719 C 20.578125 15.761719 20.34375 16.84375 20.261719 16.90625 C 18.820312 17.6875 17.828125 16.546875 17.828125 16.546875 C 18.039062 16.695312 18.292969 16.800781 18.589844 16.800781 C 19.328125 16.800781 19.921875 16.1875 19.921875 15.402344 C 19.921875 15.042969 19.792969 14.726562 19.582031 14.472656 L 17.042969 11.46875 L 17.042969 9.542969 Z M 13 20.84375 L 10.207031 17.414062 L 10.207031 15.488281 L 13.402344 19.488281 C 13.402344 19.488281 16.894531 24.652344 23.011719 21.265625 C 22.058594 22.28125 20.238281 23.085938 18.226562 23.085938 C 15.859375 23.085938 13.910156 21.964844 13 20.84375 Z M 13 20.84375 "/>
<path style=" stroke:none;fill-rule:evenodd;fill:rgb(46.27451%,46.666667%,47.843137%);fill-opacity:1;" d="M 28.238281 2.875 L 21.316406 11.214844 C 20.449219 12.292969 19.941406 13.667969 19.941406 15.171875 C 19.941406 18.621094 22.714844 21.433594 26.144531 21.433594 C 28.34375 21.433594 30.226562 20.1875 31.390625 18.492188 L 35.074219 14.027344 L 35.074219 12.101562 L 30.460938 17.835938 L 30.4375 17.902344 C 29.359375 19.148438 27.941406 20.3125 26.144531 20.3125 C 23.347656 20.3125 21.0625 18.007812 21.0625 15.171875 C 21.0625 13.945312 21.488281 12.820312 22.183594 11.933594 L 28.238281 4.800781 Z M 28.238281 2.875 "/>
<path style=" stroke:none;fill-rule:evenodd;fill:rgb(46.27451%,46.666667%,47.843137%);fill-opacity:1;" d="M 22.671875 13.054688 C 22.3125 13.667969 22.121094 14.410156 22.121094 15.191406 C 22.121094 17.457031 23.921875 19.296875 26.101562 19.296875 C 27.476562 19.296875 28.683594 18.578125 29.402344 17.5 L 35.074219 10.558594 L 35.074219 8.632812 L 28.300781 16.90625 C 27.707031 17.773438 27.222656 17.898438 26.164062 18.046875 C 24.621094 18.28125 23.328125 16.738281 23.328125 15.128906 C 23.328125 14.597656 23.390625 14.132812 23.625 13.710938 L 28.238281 8.207031 L 28.238281 6.285156 Z M 22.671875 13.054688 "/>
<path style=" stroke:none;fill-rule:evenodd;fill:rgb(46.27451%,46.666667%,47.843137%);fill-opacity:1;" d="M 24.597656 13.964844 L 24.492188 14.683594 L 24.703125 15.761719 C 24.703125 15.761719 24.914062 16.84375 25.019531 16.90625 C 26.460938 17.6875 27.453125 16.546875 27.453125 16.546875 C 27.242188 16.695312 26.96875 16.800781 26.691406 16.800781 C 25.953125 16.800781 25.339844 16.1875 25.339844 15.402344 C 25.339844 15.042969 25.484375 14.726562 25.699219 14.472656 L 28.238281 11.46875 L 28.238281 9.542969 Z M 32.257812 20.84375 L 35.074219 17.414062 L 35.074219 15.488281 L 31.878906 19.488281 C 31.878906 19.488281 28.386719 24.652344 22.25 21.265625 C 23.222656 22.28125 25.019531 23.085938 27.050781 23.085938 C 29.421875 23.085938 31.371094 21.964844 32.257812 20.84375 Z M 32.257812 20.84375 "/>
</g>
</svg>
